<mxfile host="Electron" modified="2023-12-02T18:18:33.252Z" agent="Mozilla/5.0 (X11; Linux x86_64) AppleWebKit/537.36 (KHTML, like Gecko) draw.io/22.1.2 Chrome/114.0.5735.289 Electron/25.9.4 Safari/537.36" etag="P3CFJgFfJjxOy4XL55Eh" version="22.1.2" type="device">
  <diagram id="qc-cw8mjiicPfDOIfQId" name="Page-1">
    <mxGraphModel dx="1917" dy="1950" grid="1" gridSize="10" guides="1" tooltips="1" connect="1" arrows="1" fold="1" page="1" pageScale="1" pageWidth="500" pageHeight="430" math="0" shadow="0">
      <root>
        <mxCell id="0" />
        <mxCell id="1" parent="0" />
        <mxCell id="WX15t2eVPmgc4cHRTpa5-1" value="" style="image;aspect=fixed;html=1;points=[];align=center;fontSize=12;image=img/lib/azure2/general/Gear.svg;" parent="1" vertex="1">
          <mxGeometry x="20.27000000000004" y="-796.9999999999999" width="34.73" height="34.73" as="geometry" />
        </mxCell>
        <mxCell id="WX15t2eVPmgc4cHRTpa5-2" value="" style="html=1;verticalLabelPosition=bottom;align=center;labelBackgroundColor=#ffffff;verticalAlign=top;strokeWidth=2;strokeColor=#0080F0;shadow=0;dashed=0;shape=mxgraph.ios7.icons.lightbulb;" parent="1" vertex="1">
          <mxGeometry x="27.75999999999999" y="-749" width="22.8" height="29.7" as="geometry" />
        </mxCell>
        <mxCell id="WX15t2eVPmgc4cHRTpa5-3" value="" style="ellipse;whiteSpace=wrap;html=1;aspect=fixed;fillColor=#d5e8d4;strokeColor=#82b366;" parent="1" vertex="1">
          <mxGeometry x="23.32000000000005" y="-703" width="31.68" height="31.68" as="geometry" />
        </mxCell>
        <mxCell id="WX15t2eVPmgc4cHRTpa5-4" value="" style="shape=mxgraph.signs.tech.rss;html=1;pointerEvents=1;fillColor=#60a917;strokeColor=#2D7600;verticalLabelPosition=bottom;verticalAlign=top;align=center;flipV=1;flipH=1;fontColor=#ffffff;" parent="1" vertex="1">
          <mxGeometry x="26.500000000000057" y="-689.7982903779612" width="14.5" height="14.97" as="geometry" />
        </mxCell>
        <mxCell id="WX15t2eVPmgc4cHRTpa5-5" value="" style="shape=mxgraph.signs.tech.rss;html=1;pointerEvents=1;fillColor=#60a917;strokeColor=#2D7600;verticalLabelPosition=bottom;verticalAlign=top;align=center;fontColor=#ffffff;" parent="1" vertex="1">
          <mxGeometry x="37.50000000000006" y="-700.7982903779612" width="14.5" height="14.97" as="geometry" />
        </mxCell>
        <mxCell id="WX15t2eVPmgc4cHRTpa5-6" value="" style="shadow=0;dashed=0;html=1;strokeColor=none;fillColor=#B266FF;labelPosition=center;verticalLabelPosition=bottom;verticalAlign=top;align=center;outlineConnect=0;shape=mxgraph.veeam.2d.alarm;" parent="1" vertex="1">
          <mxGeometry x="10" y="-657" width="45" height="34.37" as="geometry" />
        </mxCell>
        <mxCell id="WX15t2eVPmgc4cHRTpa5-13" value="&lt;u&gt;Dispositivos que puede utilizar el sistema&lt;/u&gt;" style="text;html=1;strokeColor=none;fillColor=none;align=center;verticalAlign=middle;whiteSpace=wrap;rounded=0;fontSize=12;rotation=0;" parent="1" vertex="1">
          <mxGeometry x="20.269999999999982" y="-847" width="169.5" height="25.05" as="geometry" />
        </mxCell>
        <mxCell id="WX15t2eVPmgc4cHRTpa5-14" value="Abre y cierra la persiana" style="text;html=1;strokeColor=none;fillColor=none;align=left;verticalAlign=middle;whiteSpace=wrap;rounded=0;fontSize=12;rotation=0;" parent="1" vertex="1">
          <mxGeometry x="69.13999999999999" y="-792.16" width="169.5" height="25.05" as="geometry" />
        </mxCell>
        <mxCell id="WX15t2eVPmgc4cHRTpa5-15" value="Enciende y apaga la luz" style="text;html=1;strokeColor=none;fillColor=none;align=left;verticalAlign=middle;whiteSpace=wrap;rounded=0;fontSize=12;rotation=0;" parent="1" vertex="1">
          <mxGeometry x="69.13999999999999" y="-746.67" width="169.5" height="25.05" as="geometry" />
        </mxCell>
        <mxCell id="WX15t2eVPmgc4cHRTpa5-16" value="Mide el nivel de luz" style="text;html=1;strokeColor=none;fillColor=none;align=left;verticalAlign=middle;whiteSpace=wrap;rounded=0;fontSize=12;rotation=0;" parent="1" vertex="1">
          <mxGeometry x="69.13999999999999" y="-699.6899999999999" width="169.5" height="25.05" as="geometry" />
        </mxCell>
        <mxCell id="WX15t2eVPmgc4cHRTpa5-17" value="Detecta el estado de la puerta" style="text;html=1;strokeColor=none;fillColor=none;align=left;verticalAlign=middle;whiteSpace=wrap;rounded=0;fontSize=12;rotation=0;" parent="1" vertex="1">
          <mxGeometry x="69.13999999999999" y="-652.3399999999999" width="169.5" height="25.05" as="geometry" />
        </mxCell>
        <mxCell id="WX15t2eVPmgc4cHRTpa5-9" value="" style="endArrow=none;html=1;rounded=0;" parent="1" edge="1">
          <mxGeometry width="50" height="50" relative="1" as="geometry">
            <mxPoint x="65.13999999999999" y="-577" as="sourcePoint" />
            <mxPoint x="37.27000000000001" y="-592.9982903779612" as="targetPoint" />
          </mxGeometry>
        </mxCell>
        <mxCell id="WX15t2eVPmgc4cHRTpa5-10" value="" style="endArrow=none;html=1;rounded=0;" parent="1" edge="1">
          <mxGeometry width="50" height="50" relative="1" as="geometry">
            <mxPoint x="45.139999999999986" y="-557" as="sourcePoint" />
            <mxPoint x="38.27000000000001" y="-583.9982903779612" as="targetPoint" />
          </mxGeometry>
        </mxCell>
        <mxCell id="WX15t2eVPmgc4cHRTpa5-11" value="" style="image;aspect=fixed;perimeter=ellipsePerimeter;html=1;align=center;shadow=0;dashed=0;fontColor=#4277BB;labelBackgroundColor=default;fontSize=12;spacingTop=3;image=img/lib/ibm/users/sensor.svg;rotation=-522;" parent="1" vertex="1">
          <mxGeometry x="21.27000000000001" y="-607.9982903779612" width="33" height="33" as="geometry" />
        </mxCell>
        <mxCell id="WX15t2eVPmgc4cHRTpa5-18" value="Detecta si hay personas" style="text;html=1;strokeColor=none;fillColor=none;align=left;verticalAlign=middle;whiteSpace=wrap;rounded=0;fontSize=12;rotation=0;" parent="1" vertex="1">
          <mxGeometry x="69.13999999999999" y="-607.9999999999999" width="169.5" height="25.05" as="geometry" />
        </mxCell>
        <mxCell id="WX15t2eVPmgc4cHRTpa5-19" value="&lt;u&gt;Elementos estructurales del entorno&lt;/u&gt;" style="text;html=1;strokeColor=none;fillColor=none;align=center;verticalAlign=middle;whiteSpace=wrap;rounded=0;fontSize=12;rotation=0;" parent="1" vertex="1">
          <mxGeometry x="296.14" y="-847" width="169.5" height="25.05" as="geometry" />
        </mxCell>
        <mxCell id="WX15t2eVPmgc4cHRTpa5-20" value="Ventana o pared de cristal" style="text;html=1;strokeColor=none;fillColor=none;align=left;verticalAlign=middle;whiteSpace=wrap;rounded=0;fontSize=12;rotation=0;" parent="1" vertex="1">
          <mxGeometry x="345.01" y="-792.16" width="144.99" height="25.05" as="geometry" />
        </mxCell>
        <mxCell id="WX15t2eVPmgc4cHRTpa5-21" value="Pared de ladrillo o similar" style="text;html=1;strokeColor=none;fillColor=none;align=left;verticalAlign=middle;whiteSpace=wrap;rounded=0;fontSize=12;rotation=0;" parent="1" vertex="1">
          <mxGeometry x="345.01" y="-746.67" width="144.99" height="25.05" as="geometry" />
        </mxCell>
        <mxCell id="WX15t2eVPmgc4cHRTpa5-22" value="Separación (no física) entre espacios" style="text;html=1;strokeColor=none;fillColor=none;align=left;verticalAlign=middle;whiteSpace=wrap;rounded=0;fontSize=12;rotation=0;" parent="1" vertex="1">
          <mxGeometry x="345.01" y="-699.69" width="154.99" height="25.05" as="geometry" />
        </mxCell>
        <mxCell id="WX15t2eVPmgc4cHRTpa5-23" value="Puerta" style="text;html=1;strokeColor=none;fillColor=none;align=left;verticalAlign=middle;whiteSpace=wrap;rounded=0;fontSize=12;rotation=0;" parent="1" vertex="1">
          <mxGeometry x="345.01" y="-650.34" width="134.99" height="25.05" as="geometry" />
        </mxCell>
        <mxCell id="WX15t2eVPmgc4cHRTpa5-24" value="Puerta doble" style="text;html=1;strokeColor=none;fillColor=none;align=left;verticalAlign=middle;whiteSpace=wrap;rounded=0;fontSize=12;rotation=0;" parent="1" vertex="1">
          <mxGeometry x="345.01" y="-608" width="134.99" height="25.05" as="geometry" />
        </mxCell>
        <mxCell id="WX15t2eVPmgc4cHRTpa5-25" value="" style="verticalLabelPosition=bottom;html=1;verticalAlign=top;align=center;shape=mxgraph.floorplan.wall;strokeWidth=1;rotation=-180;" parent="1" vertex="1">
          <mxGeometry x="256.64" y="-783.81" width="63" height="8.35" as="geometry" />
        </mxCell>
        <mxCell id="WX15t2eVPmgc4cHRTpa5-26" value="" style="verticalLabelPosition=bottom;html=1;verticalAlign=top;align=center;shape=mxgraph.floorplan.wall;fillColor=strokeColor;" parent="1" vertex="1">
          <mxGeometry x="256.14" y="-739.15" width="63.5" height="10" as="geometry" />
        </mxCell>
        <mxCell id="WX15t2eVPmgc4cHRTpa5-28" value="" style="endArrow=none;dashed=1;html=1;rounded=0;strokeWidth=3;" parent="1" edge="1">
          <mxGeometry width="50" height="50" relative="1" as="geometry">
            <mxPoint x="256.14" y="-688" as="sourcePoint" />
            <mxPoint x="319.64" y="-687.8" as="targetPoint" />
          </mxGeometry>
        </mxCell>
        <mxCell id="WX15t2eVPmgc4cHRTpa5-29" value="" style="verticalLabelPosition=bottom;html=1;verticalAlign=top;align=center;shape=mxgraph.floorplan.doorRight;aspect=fixed;strokeWidth=1;rotation=0;flipH=1;flipV=1;" parent="1" vertex="1">
          <mxGeometry x="286.14" y="-663.93" width="34.5" height="36.66" as="geometry" />
        </mxCell>
        <mxCell id="WX15t2eVPmgc4cHRTpa5-35" value="" style="verticalLabelPosition=bottom;html=1;verticalAlign=top;align=center;shape=mxgraph.floorplan.doorDouble;aspect=fixed;strokeWidth=1;rotation=-180;" parent="1" vertex="1">
          <mxGeometry x="252.41999999999996" y="-611" width="67.72" height="35.97" as="geometry" />
        </mxCell>
        <mxCell id="WX15t2eVPmgc4cHRTpa5-38" value="&lt;ul&gt;&lt;li&gt;Elementos estructurales, con fuente regular: Wall 5&lt;/li&gt;&lt;li&gt;Espacios, en cursiva: &lt;i&gt;Living room&lt;/i&gt;&lt;/li&gt;&lt;li&gt;Nombres de dispositivos, monospace en negrita: &lt;font style=&quot;font-weight: bold;&quot; face=&quot;Courier New&quot;&gt;device01&lt;/font&gt;&lt;br&gt;&lt;font style=&quot;font-size: 12px;&quot;&gt;(si no aparece el nombre de un dispositivo, es que no tiene o no es conocido)&lt;/font&gt;&lt;/li&gt;&lt;/ul&gt;" style="text;html=1;strokeColor=none;fillColor=none;align=left;verticalAlign=middle;whiteSpace=wrap;rounded=0;fontSize=12;rotation=0;" parent="1" vertex="1">
          <mxGeometry x="18.139999999999986" y="-507" width="460.86" height="60" as="geometry" />
        </mxCell>
        <mxCell id="WX15t2eVPmgc4cHRTpa5-39" value="&lt;u&gt;Nombrado&lt;/u&gt;" style="text;html=1;strokeColor=none;fillColor=none;align=left;verticalAlign=middle;whiteSpace=wrap;rounded=0;fontSize=12;rotation=0;" parent="1" vertex="1">
          <mxGeometry x="55" y="-541" width="109.68" height="25.05" as="geometry" />
        </mxCell>
      </root>
    </mxGraphModel>
  </diagram>
</mxfile>
